<?xml version="1.0" encoding="utf-8"?>
<!-- Generator: Adobe Illustrator 16.0.0, SVG Export Plug-In . SVG Version: 6.00 Build 0)  -->
<!DOCTYPE svg PUBLIC "-//W3C//DTD SVG 1.1//EN" "http://www.w3.org/Graphics/SVG/1.1/DTD/svg11.dtd">
<svg version="1.1" id="Layer_1" xmlns="http://www.w3.org/2000/svg" xmlns:xlink="http://www.w3.org/1999/xlink" x="0px" y="0px"
	 width="163.545px" height="163.176px" viewBox="0 0 163.545 163.176" enable-background="new 0 0 163.545 163.176"
	 xml:space="preserve">
<g>
	<path fill-rule="evenodd" clip-rule="evenodd" fill="#FFFFFF" d="M16.196,278.505c0.007-45.078,36.631-81.601,81.807-81.578
		c45.011,0.021,81.504,36.671,81.478,81.827c-0.025,45.047-36.694,81.507-81.928,81.458
		C52.692,360.163,16.188,323.503,16.196,278.505z M126.528,224.301c-27.158,0.088-45.787,18.888-45.761,42.132
		c0.025,22.785,18.659,41.76,42.054,41.742c23.026-0.018,42.463-18.842,41.807-43.215c-0.296-10.984-4.437-20.537-12.191-28.313
		C144.255,228.444,134.234,224.341,126.528,224.301z M47.978,224.178c0,37.379,0,74.688,0,112c6.861,0,13.667,0,20.51,0
		c0-37.347,0-74.655,0-112C61.64,224.178,54.834,224.178,47.978,224.178z"/>
</g>
<g>
	<path fill-rule="evenodd" clip-rule="evenodd" fill="#FFFFFF" d="M354.148,370.865c0-20.687,0-41.37,0-62.202
		c0.301,0,0.607,0,0.915,0c6.306,0,12.612-0.01,18.919,0.014c0.731,0.003,1.038-0.103,1.13-0.965
		c0.218-2.066,0.644-4.109,0.959-6.166c0.275-1.791,0.501-3.591,0.771-5.383c0.266-1.771,0.567-3.536,0.841-5.306
		c0.313-2.027,0.607-4.058,0.921-6.085c0.089-0.573,0.215-1.142,0.343-1.813c-8.289,0-16.511,0-24.796,0
		c-0.018-0.345-0.041-0.604-0.041-0.863c0-5.743-0.147-11.491,0.048-17.228c0.179-5.28,2.426-9.462,7.523-11.654
		c1.793-0.771,3.688-1.23,5.657-1.25c4.051-0.038,8.103-0.045,12.153-0.067c0.153-0.001,0.306-0.024,0.493-0.04
		c0-7.241,0-14.444,0-21.702c-1.981-0.278-3.926-0.614-5.885-0.812c-3.234-0.326-6.477-0.618-9.722-0.82
		c-2.321-0.146-4.667-0.304-6.977-0.128c-3.18,0.24-6.335,0.687-9.428,1.639c-3.706,1.143-7.098,2.801-10.135,5.186
		c-3.305,2.598-5.841,5.827-7.7,9.595c-1.362,2.76-2.291,5.657-2.9,8.673c-0.676,3.34-0.974,6.705-0.965,10.108
		c0.017,6.146,0.005,12.292,0.005,18.438c0,0.264,0,0.526,0,0.891c-7.587,0-15.108,0-22.673,0c0,8.617,0,17.134,0,25.728
		c7.548,0,15.051,0,22.614,0c0,20.078,0,40.082,0,60.088c-33.238-7.613-63.044-39.938-61.552-81.938
		c1.609-45.334,39.366-80.223,84.324-78.684c45.276,1.55,80.313,39.178,78.808,84.205
		C426.32,336.579,391.358,367.812,354.148,370.865z"/>
</g>
<g>
	<path fill-rule="evenodd" clip-rule="evenodd" fill="#FFFFFF" d="M383.902,162.285c-45.098,0-81.654-36.603-81.643-81.744
		C302.273,35.473,338.911-1.029,384.104-1c45.005,0.029,81.474,36.688,81.44,81.865
		C465.513,125.736,428.864,162.285,383.902,162.285z M326.564,66.783c-0.247,2.774,0.193,5.385,1.041,7.866
		c3.167,9.277,9.637,15.067,19.124,17.625c-1.833,0.532-3.62,0.953-5.466,0.925c-1.848-0.028-3.693-0.156-5.759-0.251
		c4.332,10.953,12.315,16.714,24.098,17.713c-11.111,8.416-23.403,11.904-37.267,10.865c0.297,0.361,0.399,0.567,0.565,0.674
		c0.587,0.373,1.187,0.727,1.794,1.062c4.096,2.262,8.295,4.299,12.783,5.662c2.805,0.852,5.613,1.735,8.475,2.349
		c2.662,0.571,5.389,0.881,8.102,1.161c2.474,0.256,4.969,0.467,7.451,0.436c4.77-0.062,9.527-0.447,14.203-1.448
		c3.027-0.648,6.071-1.306,9.012-2.255c2.859-0.924,5.665-2.084,8.369-3.396c2.947-1.431,5.844-3.01,8.596-4.785
		c4.786-3.089,9.053-6.831,12.904-11.039c4.244-4.636,7.863-9.718,10.785-15.28c1.139-2.17,2.162-4.405,3.127-6.658
		c0.879-2.057,1.699-4.148,2.379-6.277c0.672-2.106,1.124-4.283,1.692-6.425c0.958-3.608,1.423-7.299,1.69-11.006
		c0.183-2.537,0.111-5.093,0.201-7.638c0.013-0.34,0.225-0.786,0.491-0.986c4.251-3.184,7.95-6.906,11.086-11.19
		c0.251-0.342,0.466-0.71,0.696-1.065c-0.052-0.08-0.104-0.161-0.156-0.241c-4.436,1.739-8.957,3.129-13.758,3.532
		c5.1-3.388,8.727-7.889,10.885-13.883c-0.584,0.268-0.982,0.436-1.367,0.628c-1.146,0.572-2.265,1.199-3.432,1.723
		c-3.346,1.503-6.803,2.681-10.391,3.477c-0.725,0.16-1.23,0.08-1.791-0.473c-5.041-4.974-11.195-7.368-18.207-7.538
		c-2.732-0.067-5.402,0.535-8.021,1.376c-2.523,0.811-4.88,1.938-6.988,3.508c-5.941,4.424-9.555,10.257-10.52,17.672
		c-0.359,2.768-0.225,5.505,0.236,8.236c0.153,0.905,0.202,0.905-0.726,0.873c-4.892-0.166-9.667-1.093-14.394-2.281
		c-4.311-1.083-8.451-2.679-12.466-4.571c-5.071-2.391-9.811-5.341-14.202-8.831c-3.933-3.124-7.551-6.579-10.744-10.461
		c-0.416-0.508-0.734-0.536-1.025,0.014c-1.921,3.632-2.941,7.522-3.035,11.614c-0.079,3.479,0.537,6.861,1.855,10.11
		c1.909,4.708,4.889,8.548,9.062,11.457c0.11,0.078,0.169,0.229,0.376,0.52C333.824,69.696,330.15,68.663,326.564,66.783z"/>
</g>
<g>
	<path fill-rule="evenodd" clip-rule="evenodd" fill="#FFFFFF" d="M34.233,55.051c0.03-0.07,0.06-0.15,0.08-0.22
		C34.583,55.021,34.323,55.001,34.233,55.051z"/>
	<path fill-rule="evenodd" clip-rule="evenodd" fill="#FFFFFF" d="M62.343,83.82c-2.02-0.01-3.18-1.199-3.17-3.27
		c-0.14-1.98,1.59-3.35,3.26-3.23c1.84,0.141,3.3,1.45,3.32,3.23C65.773,82.4,64.293,83.82,62.343,83.82z"/>
	<path fill-rule="evenodd" clip-rule="evenodd" fill="#FFFFFF" d="M109.793,94.15c-3.85,8.051-10.31,12.91-18.95,14.471
		c-12.66,2.279-22.58-2.521-30.08-12.721c-0.98-1.34-0.81-1.689,0.87-1.79c4.12-0.229,8.25-0.43,12.37-0.64
		c0.01,0.01,0.01,0.03,0.01,0.04c11.26-0.37,22.53-0.75,33.8-1.12c0.27-0.01,0.529-0.01,0.8-0.01
		C110.283,92.4,110.493,92.681,109.793,94.15z"/>
	<path fill-rule="evenodd" clip-rule="evenodd" fill="#FFFFFF" d="M110.353,79.261c0.021,1.87-1.34,3.26-3.199,3.28
		c-1.851,0.01-3.28-1.38-3.301-3.21c-0.02-1.84,1.381-3.261,3.23-3.271C108.973,76.041,110.343,77.381,110.353,79.261z"/>
	<path fill-rule="evenodd" clip-rule="evenodd" fill="#FFFFFF" d="M81.643,0.001c-44.96,0-81.61,36.55-81.64,81.43
		c-0.04,42.66,32.48,77.72,73.99,81.521c0.09,0.02,0.19,0.02,0.28,0.029c2.37,0.21,4.76,0.32,7.18,0.32c2.51,0,5-0.11,7.46-0.34
		c0.09,0,0.18-0.01,0.26-0.021c41.58-3.84,74.11-38.72,74.13-81.199C163.313,36.601,126.753,0.001,81.643,0.001z M138.833,91.53
		c-0.65,9.141-2.05,18.15-7.02,26.16c-3.211,4.28-7.11,7.75-11.82,10.29c-7.75,4.181-16.16,6.011-24.83,6.9
		c-8.15,0.84-16.31,0.74-24.46-0.03c-6.52-0.62-12.94-1.72-19.12-4.07c-3.16-1.199-6.04-2.899-8.96-4.55
		c-0.23-0.22-0.44-0.46-0.69-0.649c-5.36-4.16-9.36-9.34-11.86-15.67c-2.42-6.16-3.47-12.591-3.8-19.17
		c-0.21-4.141-0.2-8.301,0.26-12.4c0.82-7.13,2.74-13.98,6.07-20.39c0.62-0.921,1.29-1.82,1.63-2.9c-1.3,0.12-2.6,0.24-3.9,0.36
		c-3.21-1-3.87-3.32-1.84-6.04c0.87-1.181,2.8-1.78,2.76-3.271c-0.05-1.399-1.07-2.76-1.66-4.149c-0.06-0.141-0.12-0.301-0.17-0.45
		c-1.71-4.84-0.85-9.04,2.92-12.66c2.44-2.33,5.35-3.93,8.13-5.74c0.2-0.1,0.39-0.189,0.59-0.29c0.71-0.18,1.35-0.51,1.93-0.96
		c0.42-0.18,0.84-0.37,1.27-0.56c0.09-0.061,0.19-0.12,0.29-0.19c3.55-1.34,7.04-2.85,10.88-3.31c4.94-0.59,8.74,1.13,11.42,5.3
		c0.81,1.26,1.57,2.56,2.2,3.92c0.41,0.89,0.92,1.03,1.77,0.81c0.88-0.229,1.78-0.399,2.69-0.51c1.84-0.24,3.41,0.21,4.48,1.86
		c0.68,2.189-0.38,3.83-1.92,5.439c3.12-0.33,6-0.399,8.88-0.38c5,0.181,9.95,0.69,14.84,1.74c8.95,1.93,17.47,4.86,24.92,10.38
		c2.26,1.68,4.17,3.7,6.021,5.8l0.029,0.15l0.141,0.04l0.06,0.1c-0.03,0.19,0.05,0.301,0.25,0.32l0.01,0.02
		c0.79,1.58,1.69,3.11,2.36,4.73C138.123,68.421,139.663,79.831,138.833,91.53z"/>
</g>
<g>
	<path fill-rule="evenodd" clip-rule="evenodd" fill="#FFFFFF" d="M-192.355,29.999c45.104,0,81.667,36.604,81.654,81.746
		c-0.012,45.074-36.649,81.582-81.846,81.554c-45.008-0.028-81.485-36.69-81.453-81.866C-273.968,66.556-237.317,30-192.355,29.999z
		 M-193.017,154.97c17.687,0,35.373,0,53.06-0.001c0.269,0,0.566,0.057,0.799-0.038c2.018-0.824,3.948-1.794,5.2-3.688
		c1.124-1.703,1.999-3.502,1.999-5.614c-0.003-23.107-0.001-46.217-0.002-69.324c0-1.052-0.059-2.055-0.445-3.095
		c-0.775-2.09-1.821-3.939-3.684-5.202c-1.396-0.947-2.867-1.635-4.669-1.633c-35.051,0.03-70.102,0.022-105.153,0.023
		c-0.295,0-0.621-0.071-0.88,0.028c-2.121,0.814-4.125,1.867-5.361,3.853c-1.066,1.711-1.893,3.53-1.89,5.66
		c0.022,23.054,0.013,46.108,0.015,69.163c0.002,1.023,0.066,1.999,0.438,3.015c0.767,2.095,1.802,3.944,3.662,5.216
		c1.395,0.953,2.857,1.661,4.658,1.658C-227.853,154.955-210.435,154.97-193.017,154.97z"/>
	<path fill-rule="evenodd" clip-rule="evenodd" fill="#FFFFFF" d="M-193.222,117.633c-0.955-0.853-1.945-1.727-2.924-2.613
		c-2.346-2.125-4.688-4.254-7.029-6.384c-0.697-0.635-1.37-1.298-2.084-1.914c-1.096-0.946-2.227-1.855-3.325-2.8
		c-0.554-0.476-1.065-1-1.604-1.493c-1.77-1.612-3.528-3.236-5.316-4.827c-2.617-2.327-5.268-4.617-7.881-6.948
		c-0.831-0.742-1.555-1.607-2.391-2.344c-1.034-0.91-2.151-1.725-3.199-2.619c-0.6-0.512-1.111-1.122-1.699-1.646
		c-2.336-2.088-4.688-4.158-7.028-6.239c-0.131-0.116-0.228-0.271-0.44-0.529c30.027,0,59.914,0,89.922,0
		c-0.893,0.81-1.737,1.56-2.564,2.326c-1.338,1.24-2.655,2.502-4.002,3.733c-0.647,0.594-1.358,1.121-2.012,1.71
		c-1.365,1.227-2.703,2.484-4.068,3.71c-1.281,1.152-2.582,2.285-3.877,3.423c-2.174,1.908-4.367,3.792-6.515,5.728
		c-1.397,1.261-2.697,2.627-4.097,3.887c-1.041,0.938-2.184,1.764-3.255,2.671c-0.518,0.439-0.959,0.968-1.462,1.428
		c-1.745,1.599-3.49,3.198-5.258,4.774C-187.928,112.977-190.543,115.27-193.222,117.633z"/>
	<path fill-rule="evenodd" clip-rule="evenodd" fill="#FFFFFF" d="M-237.282,144.11c0.877-0.816,1.769-1.659,2.672-2.486
		c0.979-0.896,1.961-1.784,2.955-2.662c1.629-1.439,3.271-2.866,4.904-4.301c1.018-0.893,2.031-1.792,3.044-2.691
		c1.927-1.709,3.854-3.418,5.777-5.131c1.48-1.318,2.966-2.632,4.427-3.969c1.143-1.044,2.235-2.139,3.378-3.183
		c1.491-1.36,3.006-2.694,4.519-4.032c0.152-0.135,0.358-0.208,0.59-0.339c1.305,1.202,2.594,2.411,3.906,3.593
		c2.489,2.238,4.987,4.467,7.502,6.674c0.145,0.126,0.57,0.141,0.716,0.022c1.159-0.942,2.284-1.929,3.418-2.902
		c1.508-1.294,3.037-2.563,4.516-3.891c1.178-1.06,2.294-2.189,3.77-3.604c0.697,0.9,1.288,1.84,2.053,2.605
		c0.968,0.971,2.101,1.775,3.124,2.695c2.415,2.169,4.807,4.363,7.204,6.551c0.756,0.69,1.479,1.416,2.257,2.082
		c1.118,0.958,2.282,1.862,3.403,2.818c0.336,0.288,0.564,0.704,0.897,0.999c1.613,1.426,3.252,2.821,4.867,4.243
		c1.118,0.984,2.21,1.997,3.32,2.988c1.388,1.236,2.782,2.464,4.172,3.697c0.055,0.048,0.083,0.122,0.149,0.223
		C-178.962,144.11-208.143,144.11-237.282,144.11z"/>
	<path fill-rule="evenodd" clip-rule="evenodd" fill="#FFFFFF" d="M-145.198,139.96c-2.118-1.87-4.165-3.645-6.176-5.461
		c-2.085-1.881-4.124-3.813-6.202-5.703c-2.025-1.839-4.075-3.652-6.112-5.476c-2.039-1.824-4.068-3.66-6.12-5.469
		c-1.511-1.331-3.098-2.578-4.558-3.959c-0.835-0.789-1.485-1.772-2.241-2.695c0.654-0.592,1.611-1.458,2.573-2.319
		c0.969-0.868,1.94-1.733,2.913-2.596c2.82-2.501,5.646-4.994,8.46-7.502c0.845-0.754,1.646-1.558,2.488-2.314
		c2.49-2.235,4.993-4.455,7.484-6.689c1.228-1.102,2.437-2.223,3.659-3.33c1.102-0.999,2.207-1.998,3.318-2.986
		c0.128-0.112,0.309-0.165,0.513-0.272C-145.198,102.135-145.198,121.004-145.198,139.96z"/>
	<path fill-rule="evenodd" clip-rule="evenodd" fill="#FFFFFF" d="M-209.745,111.201c-1.385,1.245-2.762,2.487-4.144,3.722
		c-0.971,0.868-1.948,1.726-2.923,2.588c-2.334,2.066-4.675,4.125-6.998,6.203c-0.954,0.854-1.852,1.771-2.804,2.626
		c-2.392,2.146-4.808,4.266-7.2,6.409c-1.328,1.19-2.623,2.418-3.947,3.613c-1.023,0.923-2.068,1.822-3.166,2.787
		c0-18.659,0-37.262,0-55.929c0.504,0.417,1.015,0.807,1.489,1.238c1.37,1.243,2.712,2.52,4.091,3.753
		c2.314,2.071,4.656,4.112,6.971,6.183c1.369,1.225,2.693,2.5,4.063,3.724c2.276,2.034,4.573,4.044,6.86,6.066
		c0.994,0.879,1.992,1.757,2.973,2.651C-212.911,108.269-211.356,109.715-209.745,111.201z"/>
</g>
<g>
	<path fill-rule="evenodd" clip-rule="evenodd" fill="#FFFFFF" d="M-119.067,306.771c0,10.851-8.92,19.67-19.869,19.66
		c-11.09,0-19.811-8.88-19.801-20.15c0.01-10.699,8.99-19.52,19.881-19.52C-127.827,286.771-119.067,295.631-119.067,306.771z"/>
	<path fill-rule="evenodd" clip-rule="evenodd" fill="#FFFFFF" d="M-90.037,306.57c0-4.859,0.09-9.72-0.03-14.569
		c-0.109-4.721-0.26-9.45-0.739-14.141c-0.48-4.77-2.16-9.149-5.511-12.76c-4.399-4.75-10.1-6.689-16.29-6.85
		c-13.79-0.36-27.579-0.44-41.38-0.48c-4.529-0.01-9.07,0.271-13.58,0.721c-10.06,1-17.08,7.05-18.919,17.01
		c-1.01,5.45-1.12,11.109-1.23,16.68c-0.18,9.53-0.13,19.07-0.02,28.6c0.06,4.851,0.28,9.721,0.73,14.551
		c0.9,9.779,7.07,16.689,16.65,18.899c5.539,1.28,11.209,1.13,16.83,1.2c9.719,0.12,19.439,0.11,29.159,0
		c4.71-0.05,9.44-0.26,14.13-0.729c4.87-0.49,9.33-2.19,12.99-5.66c4.62-4.38,6.41-9.99,6.71-16.08
		c0.43-8.79,0.521-17.59,0.75-26.38C-89.867,306.57-89.957,306.57-90.037,306.57z M-139.047,337.301
		c-16.88-0.01-30.62-13.89-30.55-30.84c0.07-16.9,13.85-30.61,30.699-30.57c16.98,0.03,30.771,13.83,30.711,30.72
		C-108.247,323.671-121.957,337.32-139.047,337.301z M-107.027,281.911c-3.989,0.02-7.14-3.101-7.18-7.11
		c-0.04-4.04,3.15-7.271,7.17-7.271c3.97,0,7.18,3.181,7.21,7.131C-99.797,278.701-102.957,281.891-107.027,281.911z"/>
	<path fill-rule="evenodd" clip-rule="evenodd" fill="#FFFFFF" d="M-138.356,227.501c-44.96,0-81.61,36.55-81.641,81.43
		c-0.04,45.18,36.44,81.84,81.45,81.87c45.2,0.03,81.83-36.48,81.85-81.56C-56.687,264.101-93.247,227.501-138.356,227.501z
		 M-80.937,341.53c-3.62,13.591-13.91,22.511-27.971,23.931c-5.819,0.58-11.71,0.66-17.569,0.84c-4.12,0.12-8.25,0.02-12.38,0.02
		v0.141c-8.211-0.16-16.41-0.25-24.621-0.49c-6.1-0.18-12.049-1.22-17.52-4.09c-9.44-4.96-14.91-12.95-16.41-23.36
		c-0.92-6.359-1.07-12.87-1.16-19.319c-0.16-10.41-0.06-20.82,0.08-31.23c0.08-5.81,0.2-11.66,1.9-17.3
		c3.88-12.87,12.64-20.44,25.73-22.57c6.25-1.01,12.689-1.08,19.049-1.17c10.5-0.16,21.001-0.07,31.501,0.08
		c5.859,0.08,11.75,0.21,17.439,1.93c12.22,3.7,19.74,11.91,22.2,24.33c1.1,5.57,1.29,11.37,1.4,17.08
		c0.21,10.78,0.149,21.561,0.029,32.34C-79.317,329.001-79.297,335.36-80.937,341.53z"/>
</g>
<g>
	<path fill-rule="evenodd" clip-rule="evenodd" fill="#FFFFFF" d="M-119.856-142.999c-44.96,0-81.61,36.55-81.641,81.43
		c-0.04,45.18,36.44,81.84,81.45,81.87c45.2,0.03,81.83-36.48,81.85-81.56C-38.187-106.399-74.747-142.999-119.856-142.999z
		 M-81.857-56.039c1.12,0.02,2.431-0.66,3.391,0.53c0.08,10.779,0.16,21.56,0.229,32.35c0,0.58-0.109,1.11-0.819,1.22
		c-14.98,0.271-29.971,0.29-44.95-0.02c-0.311-0.521-0.49-0.391-0.61,0.12c-3.87,6.619-7.909,13.149-11.54,19.899
		c-1.619,3.03-3.439,4.32-6.96,4.11c-5.45-0.34-10.93-0.061-16.4-0.12c-0.88-0.021-2.02,0.61-2.68-0.6
		c-0.32-7.15-0.34-14.28,0.01-21.431c6.99-12.229,13.96-24.47,20.95-36.7c1.38-2.42,2.69-4.869,4.22-7.189
		c1.55-2.34,0.609-2.64-1.65-2.61c-6.9,0.08-13.81,0.05-20.71,0c-0.91,0-2.01,0.53-2.76-0.52c-0.57-10.891-0.13-21.78-0.22-32.681
		c0-0.489,0.27-0.81,0.78-0.899c14.98-0.29,29.971-0.311,44.94,0.01c0.31,0.54,0.5,0.41,0.609-0.12
		c3.94-6.71,8.021-13.35,11.75-20.18c1.511-2.76,3.141-4.021,6.45-3.82c5.45,0.33,10.94,0.05,16.4,0.12c1,0.01,2.24-0.64,3.02,0.6
		c0.28,7.15,0.36,14.29-0.04,21.44c-7.04,12.34-14.09,24.67-21.13,37.01c-1.689,2.95-3.38,5.91-5.39,9.44
		C-96.887-56.079-89.377-56.109-81.857-56.039z"/>
</g>
<g>
	<path fill-rule="evenodd" clip-rule="evenodd" fill="#030303" d="M164.496,71.857c-0.303,0.349-0.387-0.066-0.559-0.16
		c0.172-0.095,0.256-0.51,0.559-0.162C164.496,71.643,164.496,71.75,164.496,71.857z"/>
	<path fill-rule="evenodd" clip-rule="evenodd" fill="#030303" d="M-1.001,70.888c0.168-0.074,0.283-0.014,0.283,0.162
		c0,0.177-0.114,0.236-0.283,0.162C-1.001,71.104-1.001,70.995-1.001,70.888z"/>
	<path fill-rule="evenodd" clip-rule="evenodd" fill="#030303" d="M-1.001,89.313c0.099,0.078,0.199,0.156,0.299,0.234
		c-0.1,0.028-0.2,0.059-0.299,0.09C-1.001,89.527-1.001,89.42-1.001,89.313z"/>
	<path fill-rule="evenodd" clip-rule="evenodd" fill="#030303" d="M164.496,89.637c-0.139,0.089-0.283,0.073-0.291-0.091
		c-0.004-0.073,0.188-0.155,0.291-0.233C164.496,89.42,164.496,89.527,164.496,89.637z"/>
	<path fill-rule="evenodd" clip-rule="evenodd" fill="#030303" d="M73.989,163.01c0.007-0.08,0.015-0.16,0.021-0.238
		c0.101,0.078,0.201,0.158,0.301,0.238C74.205,163.01,74.097,163.01,73.989,163.01z"/>
	<path fill-rule="evenodd" clip-rule="evenodd" fill="#030303" d="M88.857,163.01c0.102-0.08,0.201-0.16,0.301-0.238
		c0.008,0.078,0.014,0.158,0.021,0.238C89.072,163.01,88.965,163.01,88.857,163.01z"/>
</g>
</svg>
