<?xml version="1.0" encoding="utf-8"?>
<!-- Generator: Adobe Illustrator 16.0.0, SVG Export Plug-In . SVG Version: 6.00 Build 0)  -->
<!DOCTYPE svg PUBLIC "-//W3C//DTD SVG 1.1//EN" "http://www.w3.org/Graphics/SVG/1.1/DTD/svg11.dtd">
<svg version="1.1" id="Layer_1" xmlns="http://www.w3.org/2000/svg" xmlns:xlink="http://www.w3.org/1999/xlink" x="0px" y="0px"
	 width="163.545px" height="163.176px" viewBox="0 0 163.545 163.176" enable-background="new 0 0 163.545 163.176"
	 xml:space="preserve">
<g>
	<path fill-rule="evenodd" clip-rule="evenodd" fill="#FFFFFF" d="M16.196,278.505c0.007-45.078,36.631-81.601,81.807-81.578
		c45.011,0.021,81.504,36.671,81.478,81.827c-0.025,45.047-36.694,81.507-81.928,81.458
		C52.692,360.163,16.188,323.503,16.196,278.505z M126.528,224.301c-27.158,0.088-45.787,18.888-45.761,42.132
		c0.025,22.785,18.659,41.76,42.054,41.742c23.026-0.018,42.463-18.842,41.807-43.215c-0.296-10.984-4.437-20.537-12.191-28.313
		C144.255,228.444,134.234,224.341,126.528,224.301z M47.978,224.178c0,37.379,0,74.688,0,112c6.861,0,13.667,0,20.51,0
		c0-37.347,0-74.655,0-112C61.64,224.178,54.834,224.178,47.978,224.178z"/>
</g>
<g>
	<path fill-rule="evenodd" clip-rule="evenodd" fill="#FFFFFF" d="M354.148,370.865c0-20.687,0-41.37,0-62.202
		c0.301,0,0.607,0,0.915,0c6.306,0,12.612-0.01,18.919,0.014c0.731,0.003,1.038-0.103,1.13-0.965
		c0.218-2.066,0.644-4.109,0.959-6.166c0.275-1.791,0.501-3.591,0.771-5.383c0.266-1.771,0.567-3.536,0.841-5.306
		c0.313-2.027,0.607-4.058,0.921-6.085c0.089-0.573,0.215-1.142,0.343-1.813c-8.289,0-16.511,0-24.796,0
		c-0.018-0.345-0.041-0.604-0.041-0.863c0-5.743-0.147-11.491,0.048-17.228c0.179-5.28,2.426-9.462,7.523-11.654
		c1.793-0.771,3.688-1.23,5.657-1.25c4.051-0.038,8.103-0.045,12.153-0.067c0.153-0.001,0.306-0.024,0.493-0.04
		c0-7.241,0-14.444,0-21.702c-1.981-0.278-3.926-0.614-5.885-0.812c-3.234-0.326-6.477-0.618-9.722-0.82
		c-2.321-0.146-4.667-0.304-6.977-0.128c-3.18,0.24-6.335,0.687-9.428,1.639c-3.706,1.143-7.098,2.801-10.135,5.186
		c-3.305,2.598-5.841,5.827-7.7,9.595c-1.362,2.76-2.291,5.657-2.9,8.673c-0.676,3.34-0.974,6.705-0.965,10.108
		c0.017,6.146,0.005,12.292,0.005,18.438c0,0.264,0,0.526,0,0.891c-7.587,0-15.108,0-22.673,0c0,8.617,0,17.134,0,25.728
		c7.548,0,15.051,0,22.614,0c0,20.078,0,40.082,0,60.088c-33.238-7.613-63.044-39.938-61.552-81.938
		c1.609-45.334,39.366-80.223,84.324-78.684c45.276,1.55,80.313,39.178,78.808,84.205
		C426.32,336.579,391.358,367.812,354.148,370.865z"/>
</g>
<g>
	<path fill-rule="evenodd" clip-rule="evenodd" fill="#FFFFFF" d="M383.902,162.285c-45.098,0-81.654-36.603-81.643-81.744
		C302.273,35.473,338.911-1.029,384.104-1c45.005,0.029,81.474,36.688,81.44,81.865
		C465.513,125.736,428.864,162.285,383.902,162.285z M326.564,66.783c-0.247,2.774,0.193,5.385,1.041,7.866
		c3.167,9.277,9.637,15.067,19.124,17.625c-1.833,0.532-3.62,0.953-5.466,0.925c-1.848-0.028-3.693-0.156-5.759-0.251
		c4.332,10.953,12.315,16.714,24.098,17.713c-11.111,8.416-23.403,11.904-37.267,10.865c0.297,0.361,0.399,0.567,0.565,0.674
		c0.587,0.373,1.187,0.727,1.794,1.062c4.096,2.262,8.295,4.299,12.783,5.662c2.805,0.852,5.613,1.735,8.475,2.349
		c2.662,0.571,5.389,0.881,8.102,1.161c2.474,0.256,4.969,0.467,7.451,0.436c4.77-0.062,9.527-0.447,14.203-1.448
		c3.027-0.648,6.071-1.306,9.012-2.255c2.859-0.924,5.665-2.084,8.369-3.396c2.947-1.431,5.844-3.01,8.596-4.785
		c4.786-3.089,9.053-6.831,12.904-11.039c4.244-4.636,7.863-9.718,10.785-15.28c1.139-2.17,2.162-4.405,3.127-6.658
		c0.879-2.057,1.699-4.148,2.379-6.277c0.672-2.106,1.124-4.283,1.692-6.425c0.958-3.608,1.423-7.299,1.69-11.006
		c0.183-2.537,0.111-5.093,0.201-7.638c0.013-0.34,0.225-0.786,0.491-0.986c4.251-3.184,7.95-6.906,11.086-11.19
		c0.251-0.342,0.466-0.71,0.696-1.065c-0.052-0.08-0.104-0.161-0.156-0.241c-4.436,1.739-8.957,3.129-13.758,3.532
		c5.1-3.388,8.727-7.889,10.885-13.883c-0.584,0.268-0.982,0.436-1.367,0.628c-1.146,0.572-2.265,1.199-3.432,1.723
		c-3.346,1.503-6.803,2.681-10.391,3.477c-0.725,0.16-1.23,0.08-1.791-0.473c-5.041-4.974-11.195-7.368-18.207-7.538
		c-2.732-0.067-5.402,0.535-8.021,1.376c-2.523,0.811-4.88,1.938-6.988,3.508c-5.941,4.424-9.555,10.257-10.52,17.672
		c-0.359,2.768-0.225,5.505,0.236,8.236c0.153,0.905,0.202,0.905-0.726,0.873c-4.892-0.166-9.667-1.093-14.394-2.281
		c-4.311-1.083-8.451-2.679-12.466-4.571c-5.071-2.391-9.811-5.341-14.202-8.831c-3.933-3.124-7.551-6.579-10.744-10.461
		c-0.416-0.508-0.734-0.536-1.025,0.014c-1.921,3.632-2.941,7.522-3.035,11.614c-0.079,3.479,0.537,6.861,1.855,10.11
		c1.909,4.708,4.889,8.548,9.062,11.457c0.11,0.078,0.169,0.229,0.376,0.52C333.824,69.696,330.15,68.663,326.564,66.783z"/>
</g>
<g>
	<path fill-rule="evenodd" clip-rule="evenodd" fill="#FFFFFF" d="M81.645,0c45.104,0,81.667,36.604,81.654,81.746
		c-0.012,45.074-36.649,81.582-81.846,81.554C36.445,163.271-0.033,126.608,0,81.433C0.032,36.556,36.683,0,81.645,0z
		 M80.984,124.97c17.686,0,35.373,0,53.059-0.001c0.269,0,0.566,0.057,0.799-0.038c2.018-0.824,3.948-1.794,5.2-3.688
		c1.124-1.703,1.999-3.502,1.999-5.614c-0.003-23.107-0.001-46.217-0.002-69.324c0-1.052-0.059-2.055-0.445-3.095
		c-0.775-2.09-1.821-3.939-3.684-5.202c-1.396-0.947-2.867-1.635-4.669-1.633c-35.051,0.03-70.102,0.022-105.153,0.023
		c-0.295,0-0.621-0.071-0.88,0.028c-2.121,0.814-4.125,1.867-5.361,3.853c-1.066,1.711-1.893,3.53-1.89,5.66
		c0.023,23.054,0.013,46.108,0.015,69.163c0.001,1.023,0.065,1.999,0.438,3.015c0.766,2.095,1.801,3.944,3.662,5.216
		c1.394,0.953,2.857,1.661,4.658,1.658C46.147,124.955,63.565,124.97,80.984,124.97z"/>
	<path fill-rule="evenodd" clip-rule="evenodd" fill="#FFFFFF" d="M80.778,87.633c-0.955-0.853-1.945-1.727-2.923-2.613
		c-2.347-2.125-4.688-4.254-7.03-6.384c-0.697-0.635-1.37-1.298-2.083-1.914c-1.097-0.946-2.227-1.855-3.326-2.8
		c-0.554-0.476-1.065-1-1.604-1.493c-1.77-1.612-3.528-3.236-5.317-4.827c-2.617-2.327-5.268-4.617-7.88-6.948
		c-0.831-0.742-1.555-1.607-2.391-2.344c-1.034-0.91-2.151-1.725-3.199-2.619c-0.599-0.512-1.111-1.122-1.699-1.646
		c-2.336-2.088-4.687-4.158-7.028-6.239c-0.131-0.116-0.228-0.271-0.44-0.529c30.027,0,59.914,0,89.922,0
		c-0.893,0.81-1.737,1.56-2.564,2.326c-1.338,1.24-2.655,2.502-4.002,3.733c-0.647,0.594-1.358,1.121-2.012,1.71
		c-1.365,1.227-2.703,2.484-4.068,3.71c-1.281,1.152-2.582,2.285-3.877,3.423c-2.174,1.908-4.367,3.792-6.515,5.728
		c-1.397,1.261-2.697,2.627-4.097,3.887c-1.041,0.938-2.184,1.764-3.255,2.671c-0.518,0.439-0.959,0.968-1.462,1.428
		c-1.745,1.599-3.49,3.198-5.258,4.774C86.072,82.977,83.457,85.27,80.778,87.633z"/>
	<path fill-rule="evenodd" clip-rule="evenodd" fill="#FFFFFF" d="M36.717,114.11c0.878-0.816,1.769-1.659,2.673-2.486
		c0.978-0.896,1.961-1.784,2.954-2.662c1.63-1.439,3.271-2.866,4.904-4.301c1.018-0.893,2.031-1.792,3.044-2.691
		c1.927-1.709,3.854-3.418,5.777-5.131c1.48-1.318,2.965-2.632,4.427-3.969c1.142-1.044,2.235-2.139,3.377-3.183
		c1.491-1.36,3.006-2.694,4.519-4.032c0.152-0.135,0.358-0.208,0.589-0.339c1.305,1.202,2.594,2.411,3.907,3.593
		c2.489,2.238,4.987,4.467,7.502,6.674c0.144,0.126,0.57,0.141,0.715,0.022c1.159-0.942,2.284-1.929,3.418-2.902
		c1.508-1.294,3.037-2.563,4.516-3.891c1.178-1.06,2.294-2.189,3.77-3.604c0.697,0.9,1.288,1.84,2.053,2.605
		c0.968,0.971,2.101,1.775,3.124,2.695c2.415,2.169,4.807,4.363,7.204,6.551c0.756,0.69,1.479,1.416,2.257,2.082
		c1.118,0.958,2.282,1.862,3.403,2.818c0.336,0.288,0.564,0.704,0.897,0.999c1.613,1.426,3.252,2.821,4.867,4.243
		c1.118,0.984,2.21,1.997,3.32,2.988c1.388,1.236,2.782,2.464,4.172,3.697c0.055,0.048,0.083,0.122,0.149,0.223
		C95.038,114.11,65.857,114.11,36.717,114.11z"/>
	<path fill-rule="evenodd" clip-rule="evenodd" fill="#FFFFFF" d="M128.802,109.96c-2.118-1.87-4.165-3.645-6.176-5.461
		c-2.085-1.881-4.124-3.813-6.202-5.703c-2.025-1.839-4.075-3.652-6.112-5.476c-2.039-1.824-4.068-3.66-6.12-5.469
		c-1.511-1.331-3.098-2.578-4.558-3.959c-0.835-0.789-1.485-1.772-2.241-2.695c0.654-0.592,1.611-1.458,2.573-2.319
		c0.969-0.868,1.94-1.733,2.913-2.596c2.82-2.501,5.646-4.994,8.46-7.502c0.845-0.754,1.646-1.558,2.488-2.314
		c2.49-2.235,4.993-4.455,7.484-6.689c1.228-1.102,2.437-2.223,3.659-3.33c1.102-0.999,2.207-1.998,3.318-2.986
		c0.128-0.112,0.309-0.165,0.513-0.272C128.802,72.135,128.802,91.004,128.802,109.96z"/>
	<path fill-rule="evenodd" clip-rule="evenodd" fill="#FFFFFF" d="M64.255,81.201c-1.385,1.245-2.762,2.487-4.144,3.722
		c-0.971,0.868-1.949,1.726-2.923,2.588c-2.334,2.066-4.675,4.125-6.998,6.203c-0.954,0.854-1.851,1.771-2.804,2.626
		c-2.392,2.146-4.807,4.266-7.2,6.409c-1.329,1.19-2.624,2.418-3.948,3.613c-1.024,0.923-2.068,1.822-3.166,2.787
		c0-18.659,0-37.262,0-55.929c0.504,0.417,1.014,0.807,1.489,1.238c1.371,1.243,2.712,2.52,4.091,3.753
		c2.314,2.071,4.656,4.112,6.971,6.183c1.369,1.225,2.693,2.5,4.063,3.724c2.276,2.034,4.574,4.044,6.86,6.066
		c0.994,0.879,1.992,1.757,2.973,2.651C61.089,78.269,62.644,79.715,64.255,81.201z"/>
</g>
</svg>
