<?xml version="1.0" encoding="utf-8"?>
<!-- Generator: Adobe Illustrator 16.0.0, SVG Export Plug-In . SVG Version: 6.00 Build 0)  -->
<!DOCTYPE svg PUBLIC "-//W3C//DTD SVG 1.1//EN" "http://www.w3.org/Graphics/SVG/1.1/DTD/svg11.dtd">
<svg version="1.1" id="Layer_1" xmlns="http://www.w3.org/2000/svg" xmlns:xlink="http://www.w3.org/1999/xlink" x="0px" y="0px"
	 width="163.545px" height="163.176px" viewBox="0 0 163.545 163.176" enable-background="new 0 0 163.545 163.176"
	 xml:space="preserve">
<g>
	<path fill-rule="evenodd" clip-rule="evenodd" fill="#FFFFFF" d="M16.196,278.505c0.007-45.078,36.631-81.601,81.807-81.578
		c45.011,0.021,81.504,36.671,81.478,81.827c-0.025,45.047-36.694,81.507-81.928,81.458
		C52.692,360.163,16.188,323.503,16.196,278.505z M126.528,224.301c-27.158,0.088-45.787,18.888-45.761,42.132
		c0.025,22.785,18.659,41.76,42.054,41.742c23.026-0.018,42.463-18.842,41.807-43.215c-0.296-10.984-4.437-20.537-12.191-28.313
		C144.255,228.444,134.234,224.341,126.528,224.301z M47.978,224.178c0,37.379,0,74.688,0,112c6.861,0,13.667,0,20.51,0
		c0-37.347,0-74.655,0-112C61.64,224.178,54.834,224.178,47.978,224.178z"/>
</g>
<g>
	<path fill-rule="evenodd" clip-rule="evenodd" fill="#FFFFFF" d="M354.148,370.865c0-20.687,0-41.37,0-62.202
		c0.301,0,0.607,0,0.915,0c6.306,0,12.612-0.01,18.919,0.014c0.731,0.003,1.038-0.103,1.13-0.965
		c0.218-2.066,0.644-4.109,0.959-6.166c0.275-1.791,0.501-3.591,0.771-5.383c0.266-1.771,0.567-3.536,0.841-5.306
		c0.313-2.027,0.607-4.058,0.921-6.085c0.089-0.573,0.215-1.142,0.343-1.813c-8.289,0-16.511,0-24.796,0
		c-0.018-0.345-0.041-0.604-0.041-0.863c0-5.743-0.147-11.491,0.048-17.228c0.179-5.28,2.426-9.462,7.523-11.654
		c1.793-0.771,3.688-1.23,5.657-1.25c4.051-0.038,8.103-0.045,12.153-0.067c0.153-0.001,0.306-0.024,0.493-0.04
		c0-7.241,0-14.444,0-21.702c-1.981-0.278-3.926-0.614-5.885-0.812c-3.234-0.326-6.477-0.618-9.722-0.82
		c-2.321-0.146-4.667-0.304-6.977-0.128c-3.18,0.24-6.335,0.687-9.428,1.639c-3.706,1.143-7.098,2.801-10.135,5.186
		c-3.305,2.598-5.841,5.827-7.7,9.595c-1.362,2.76-2.291,5.657-2.9,8.673c-0.676,3.34-0.974,6.705-0.965,10.108
		c0.017,6.146,0.005,12.292,0.005,18.438c0,0.264,0,0.526,0,0.891c-7.587,0-15.108,0-22.673,0c0,8.617,0,17.134,0,25.728
		c7.548,0,15.051,0,22.614,0c0,20.078,0,40.082,0,60.088c-33.238-7.613-63.044-39.938-61.552-81.938
		c1.609-45.334,39.366-80.223,84.324-78.684c45.276,1.55,80.313,39.178,78.808,84.205
		C426.32,336.579,391.358,367.812,354.148,370.865z"/>
</g>
<g>
	<path fill-rule="evenodd" clip-rule="evenodd" fill="#FFFFFF" d="M81.902,163.285c-45.098,0-81.654-36.603-81.643-81.744
		C0.273,36.473,36.911-0.029,82.104,0c45.005,0.029,81.474,36.688,81.44,81.865C163.513,126.736,126.864,163.285,81.902,163.285z
		 M24.564,67.783c-0.247,2.774,0.193,5.385,1.041,7.866c3.167,9.277,9.637,15.067,19.124,17.625
		c-1.833,0.532-3.62,0.953-5.466,0.925c-1.848-0.028-3.693-0.156-5.759-0.251c4.332,10.953,12.315,16.714,24.098,17.713
		c-11.111,8.416-23.403,11.904-37.267,10.865c0.297,0.361,0.399,0.567,0.565,0.674c0.587,0.373,1.187,0.727,1.794,1.062
		c4.096,2.262,8.295,4.299,12.783,5.662c2.805,0.852,5.613,1.735,8.475,2.349c2.662,0.571,5.389,0.881,8.102,1.161
		c2.474,0.256,4.969,0.467,7.451,0.436c4.77-0.062,9.527-0.447,14.203-1.448c3.027-0.648,6.071-1.306,9.012-2.255
		c2.859-0.924,5.665-2.084,8.369-3.396c2.947-1.431,5.844-3.01,8.596-4.785c4.786-3.089,9.053-6.831,12.904-11.039
		c4.244-4.636,7.863-9.718,10.785-15.28c1.139-2.17,2.162-4.405,3.127-6.658c0.879-2.057,1.699-4.148,2.379-6.277
		c0.672-2.106,1.124-4.283,1.692-6.425c0.958-3.608,1.423-7.299,1.69-11.006c0.183-2.537,0.111-5.093,0.201-7.638
		c0.013-0.34,0.225-0.786,0.491-0.986c4.251-3.184,7.95-6.906,11.086-11.19c0.251-0.342,0.466-0.71,0.696-1.065
		c-0.052-0.08-0.104-0.161-0.156-0.241c-4.436,1.739-8.957,3.129-13.758,3.532c5.1-3.388,8.727-7.889,10.885-13.883
		c-0.584,0.268-0.982,0.436-1.367,0.628c-1.146,0.572-2.265,1.199-3.432,1.723c-3.346,1.503-6.803,2.681-10.391,3.477
		c-0.725,0.16-1.23,0.08-1.791-0.473c-5.041-4.974-11.195-7.368-18.207-7.538c-2.732-0.067-5.402,0.535-8.021,1.376
		c-2.523,0.811-4.88,1.938-6.988,3.508c-5.941,4.424-9.555,10.257-10.52,17.672c-0.359,2.768-0.225,5.505,0.236,8.236
		c0.153,0.905,0.202,0.905-0.726,0.873c-4.892-0.166-9.667-1.093-14.394-2.281c-4.311-1.083-8.451-2.679-12.466-4.571
		c-5.071-2.391-9.811-5.341-14.202-8.831c-3.933-3.124-7.551-6.579-10.744-10.461c-0.416-0.508-0.734-0.536-1.025,0.014
		c-1.921,3.632-2.941,7.522-3.035,11.614c-0.079,3.479,0.537,6.861,1.855,10.11c1.909,4.708,4.889,8.548,9.062,11.457
		c0.11,0.078,0.169,0.229,0.376,0.52C31.824,70.696,28.15,69.663,24.564,67.783z"/>
</g>
</svg>
